# AST/ASF file generated using VICON BodyLanguage
# -----------------------------------------------
:version 1.10
:name VICON
:units
  mass 1.0
  length 0.45
  angle deg
:documentation
   .ast/.asf automatically generated from VICON data using
   VICON BodyBuilder and BodyLanguage model FoxedUp or BRILLIANT.MOD
:root
   order TX TY TZ RX RY RZ
   axis XYZ
   position 0 0 0  
   orientation 0 0 0 
:bonedata
  begin
     id 1 
     name lhipjoint
     direction 0.716712 -0.619771 0.3197 
     length 2.67249 
     axis 0 0 0  XYZ
  end
  begin
     id 2 
     name lfemur
     direction 0.34202 -0.939693 0  
     length 7.04375  
     axis 0 0 20  XYZ
    dof rx ry rz
    limits (-160.0 20.0)
           (-70.0 70.0)
           (-60.0 70.0)
  end
  begin
     id 3 
     name ltibia
     direction 0.34202 -0.939693 0   
     length 8.12233   
     axis 0 0 20   XYZ
    dof rx
    limits (-10.0 170.0)
  end
  begin
     id 4 
     name lfoot
     direction 0.0986665 -0.271084 0.957485   
     length 1.97802   
     axis -90 7.62852e-016 20   XYZ
    dof rx rz
    limits (-45.0 90.0)
           (-70.0 20.0)
  end
  begin
     id 5 
     name ltoes
     direction 1.53569e-011 -4.21962e-011 1   
     length 0.991074   
     axis -90 7.62852e-016 20   XYZ
    dof rx
    limits (-90.0 20.0)
  end
  begin
     id 6 
     name rhipjoint
     direction -0.684484 -0.647907 0.334213   
     length 2.55643  
     axis 0 0 0  XYZ 
  end
  begin
     id 7 
     name rfemur
     direction -0.34202 -0.939693 0   
     length 7.00452   
     axis 0 0 -20   XYZ
    dof rx ry rz
    limits (-160.0 20.0)
           (-70.0 70.0)
           (-70.0 60.0)
  end
  begin
     id 8 
     name rtibia
     direction -0.34202 -0.939693 0   
     length 7.98545   
     axis 0 0 -20   XYZ
    dof rx
    limits (-10.0 170.0)
 end
 begin
     id 9 
     name rfoot
     direction -0.0877828 -0.241181 0.966502   
     length 2.17223  
     axis -90 -7.62852e-016 -20   XYZ
    dof rx rz
    limits (-45.0 90.0)
           (-20.0 70.0)
  end
  begin
     id 10 
     name rtoes
     direction -1.53586e-011 -4.22014e-011 1   
     length 1.0886   
     axis -90 -7.62852e-016 -20   XYZ
    dof rx
    limits (-90.0 20.0)
  end
  begin
     id 11 
     name lowerback
     direction -0.0470064 0.989573 -0.136149   
     length 2.05976   
     axis 0 0 0   XYZ
    dof rx ry rz
    limits (-20.0 45.0)
           (-30.0 30.0)
           (-30.0 30.0)
  end
  begin
     id 12 
     name upperback
     direction -0.00532895 0.998093 0.0615045   
     length 2.02286   
     axis 0 0 0   XYZ
    dof rx ry rz
    limits (-20.0 45.0)
           (-30.0 30.0)
           (-30.0 30.0)
  end
  begin
     id 13 
     name thorax
     direction 0.0171558 0.991502 0.128954   
     length 2.09196   
     axis 0 0 0   XYZ
    dof rx ry rz
    limits (-20.0 45.0)
           (-30.0 30.0)
           (-30.0 30.0)
  end
  begin
     id 14 
     name lowerneck
     direction 0.0221176 0.995362 0.0936194   
     length 1.70234   
     axis 0 0 0   XYZ
    dof rx ry rz
    limits (-20.0 45.0)
           (-30.0 30.0)
           (-30.0 30.0)
  end
  begin
     id 15 
     name upperneck
     direction -0.0237973 0.998511 -0.0490877   
     length 1.66068   
     axis 0 0 0   XYZ
    dof rx ry rz
    limits (-20.0 45.0)
           (-30.0 30.0)
           (-30.0 30.0)
  end
  begin
     id 16
     name head
     direction -0.00980141 0.999531 -0.0289958  
     length 1.82618  
     axis 0 0 0   XYZ
    dof rx ry rz
    limits (-20.0 45.0)
           (-30.0 30.0)
           (-30.0 30.0)
  end
  begin
     id 17 
     name lclavicle
     direction 0.894784 0.445864 -0.0238113  
     length 3.37997  
     axis 0 0 0   XYZ
    dof ry rz
    limits (-20.0 10.0)
           (0.0 20.0)
  end
  begin
     id 18 
     name lhumerus
     direction 1 -4.48975e-011 6.49229e-028   
     length 5.79016   
     axis 180 -30 -90   XYZ
    dof rx ry rz
    limits (-60.0 90.0)
           (-90.0 90.0)
           (-90.0 90.0)
  end
  begin
     id 19
     name lradius
     direction 1 -4.48959e-011 2.80427e-027   
     length 3.48314   
     axis 180 -30 -90   XYZ
    dof rx
    limits (-10.0 170.0)
  end
  begin
     id 20
     name lwrist
     direction 1 -4.48938e-011 5.60449e-029   
     length 1.74157   
     axis 8.48505e-016 90 90   XYZ
    dof ry
    limits (-180.0 0.0)
 end
  begin
     id 21 
     name lhand
     direction 1 -4.49048e-011 1.1209e-028   
     length 0.587065   
     axis -7.15228e-017 90 90   XYZ
    dof rx rz
    limits (-90.0 90.0)
           (-45.0 45.0)
  end
  begin
     id 22 
     name lfingers
     direction 1 -4.49036e-011 2.24179e-028   
     length 0.473307   
     axis -1.43046e-016 90 90   XYZ
    dof rx
    limits (0.0 90.0)
  end
  begin
     id 23
     name lthumb
     direction 0.707107 -6.34878e-011 0.707107   
     length 0.679577   
     axis -90 45 2.85299e-015   XYZ
    dof rx rz
    limits (-45.0 45.0)
           (-45.0 45.0)
  end
  begin
     id 24 
     name rclavicle
     direction -0.952963 0.303049 0.00480459   
     length 3.50503  
     axis 0 0 0   XYZ 
    dof ry rz
    limits (-10.0 20.0)
           (-20.0 0.0)
  end
  begin
     id 25 
     name rhumerus
     direction -1 -4.48973e-011 -1.5431e-027  
     length 5.69822   
     axis 180 30 90   XYZ
    dof rx ry rz
    limits (-90.0 60.0)
           (-90.0 90.0)
           (-90.0 90.0)
  end
  begin
     id 26 
     name rradius
     direction -1 -4.4896e-011 2.11972e-027   
     length 3.58077   
     axis 180 30 90   XYZ
    dof rx
    limits (-10.0 170.0)
  end
  begin
     id 27 
     name rwrist
     direction -1 -4.48943e-011 5.60449e-029   
     length 1.79039   
     axis 8.48505e-016 -90 -90   XYZ
    dof ry
    limits (-180.0 0.0)
  end
  begin
     id 28
     name rhand
     direction -1 -4.49007e-011 1.1209e-028   
     length 0.620156   
     axis -7.15228e-017 -90 -90   XYZ
    dof rx rz
    limits (-90.0 90.0)
           (-45.0 45.0)
  end
  begin
     id 29
     name rfingers
     direction -1 -4.49025e-011 2.24179e-028   
     length 0.499985   
     axis -1.43046e-016 -90 -90   XYZ
    dof rx
    limits (0.0 90.0)
  end
  begin
     id 30
     name rthumb
     direction -0.707107 -6.3481e-011 0.707107   
     length 0.717882   
     axis -90 -45 -2.85299e-015   XYZ
    dof rx rz
    limits (-45.0 45.0)
           (-45.0 45.0)
  end
:hierarchy
  begin
    root lhipjoint rhipjoint lowerback
    lhipjoint lfemur
    lfemur ltibia
    ltibia lfoot
    lfoot ltoes
    rhipjoint rfemur
    rfemur rtibia
    rtibia rfoot
    rfoot rtoes
    lowerback upperback
    upperback thorax
    thorax lowerneck lclavicle rclavicle
    lowerneck upperneck
    upperneck head
    lclavicle lhumerus
    lhumerus lradius
    lradius lwrist
    lwrist lhand lthumb
    lhand lfingers
    rclavicle rhumerus
    rhumerus rradius
    rradius rwrist
    rwrist rhand rthumb
    rhand rfingers
  end

#!OML:ASF H:\Terrain\Patient Classification 1\PaulMetrics\March17Take4\PaulMetrics.ASF
:FULLY-SPECIFIED
:DEGREES
413
root 15.1053 17.9567 17.3707 -168.631 11.1159 -181.952
lowerback 1.04328 0.891874 -6.5691
upperback -2.84258 1.12772 -2.88979
thorax -3.59072 0.790957 0.636305
lowerneck -2.74498 10.6231 9.52991
upperneck 12.8373 16.5725 -12.3689
head 6.15108 8.18963 -4.16278
rclavicle 1.97791e-014 -5.88403e-014
rhumerus -47.4984 18.9514 -97.2032
rradius 51.2023
rwrist -8.17515
rhand -14.0882 -21.9559
rfingers 7.12502
rthumb 12.0441 -51.5893
lclavicle 1.97791e-014 -5.88403e-014
lhumerus -40.7895 -15.3554 84.3973
lradius 38.4936
lwrist 16.6766
lhand -8.09735 -15.7687
lfingers 7.12502
lthumb 17.8152 13.4353
rfemur -16.3874 -9.69724 17.5768
rtibia 64.1757
rfoot -2.49944 -12.1563
rtoes 2.0692
lfemur -28.8534 -2.57102 -30.9111
ltibia 31.6381
lfoot -13.0805 7.32553
ltoes 8.66964
414
root 15.0956 17.9523 17.1695 -169.628 11.7496 -181.937
lowerback 2.39479 1.36039 -7.16702
upperback -3.38436 1.56542 -2.12467
thorax -4.99936 1.07259 1.68778
lowerneck -2.52395 10.4425 8.85776
upperneck 13.8181 16.6968 -12.3228
head 6.37336 8.27246 -4.03081
rclavicle -1.27719e-014 3.18055e-015
rhumerus -49.4187 19.2394 -96.488
rradius 51.3153
rwrist -8.30211
rhand -8.96133 -33.5663
rfingers 7.12502
rthumb 16.9837 -62.8438
lclavicle -1.27719e-014 3.18055e-015
lhumerus -42.1388 -14.618 85.8704
lradius 40.0228
lwrist 16.7038
lhand -7.28831 -15.3201
lfingers 7.12502
lthumb 18.5935 13.8113
rfemur -16.5322 -8.55536 16.8358
rtibia 65.0531
rfoot -2.67638 -11.1829
rtoes -2.42731
lfemur -26.9059 -2.92827 -31.1411
ltibia 31.4789
lfoot -14.2677 8.45299
ltoes 7.82326
415
root 15.1102 17.9562 16.9988 -170.228 12.3967 -181.57
lowerback 1.46757 1.82117 -6.05112
upperback -2.53271 2.32073 -2.57972
thorax -3.57208 1.34624 0.607769
lowerneck -3.08876 10.4413 9.21413
upperneck 13.5371 16.3944 -11.9758
head 6.34884 8.10221 -3.98076
rclavicle 7.7526e-015 -7.39479e-014
rhumerus -48.31 18.1249 -96.4579
rradius 50.8491
rwrist -8.27659
rhand -10.1349 -32.912
rfingers 7.12502
rthumb 15.8538 -62.2829
lclavicle 7.7526e-015 -7.39479e-014
lhumerus -40.9521 -15.8609 85.3296
lradius 41.419
lwrist 17.594
lhand -7.63628 -15.0455
lfingers 7.12502
lthumb 18.2588 14.1175
rfemur -17.3306 -7.02667 16.9548
rtibia 65.8245
rfoot -2.76618 -11.7529
rtoes -6.6358
lfemur -25.5423 -2.97838 -30.8699
ltibia 31.3667
lfoot -14.8818 9.39473
ltoes 7.77371
416
root 15.1392 17.9661 16.8883 -169.641 11.5294 -181.566
lowerback 1.48156 1.65563 -6.39145
upperback -2.97466 2.07849 -2.26432
thorax -4.05326 1.26106 1.12098
lowerneck -3.51482 10.2952 9.0339
upperneck 14.2664 16.2621 -11.6696
head 6.59667 8.03109 -3.83512
rclavicle -2.22639e-014 -1.59028e-014
rhumerus -48.8052 17.9489 -96.1201
rradius 50.5782
rwrist -8.31282
rhand -12.2642 -31.2185
rfingers 7.12502
rthumb 13.8024 -60.7407
lclavicle -2.22639e-014 -1.59028e-014
lhumerus -41.1801 -16.1828 85.8992
lradius 42.7834
lwrist 18.2855
lhand -7.95373 -15.754
lfingers 7.12502
lthumb 17.9534 13.4373
rfemur -19.41 -6.86723 17.2357
rtibia 66.5984
rfoot -3.71787 -11.7678
rtoes -7.89326
lfemur -25.6329 -3.55883 -30.7553
ltibia 31.2008
lfoot -14.842 9.16558
ltoes 8.60633
417
root 15.1702 17.964 16.8241 -169.481 9.04368 -181.918
lowerback 1.65223 0.975821 -5.91201
upperback -2.74056 1.18658 -2.60501
thorax -3.82341 0.794551 0.552967
lowerneck -3.75122 10.2416 9.46356
upperneck 13.8306 15.9752 -11.6755
head 6.50382 7.88107 -3.92742
rclavicle -1.09332e-014 -1.51076e-014
rhumerus -48.1843 17.2785 -96.2066
rradius 50.3994
rwrist -8.03825
rhand -13.2124 -31.2648
rfingers 7.12502
rthumb 12.8885 -60.8468
lclavicle -1.09332e-014 -1.51076e-014
lhumerus -40.3077 -17.1552 85.3491
lradius 44.1112
lwrist 18.774
lhand -8.10836 -17.9409
lfingers 7.12502
lthumb 17.8046 11.264
rfemur -20.8583 -7.9842 17.4936
rtibia 67.3422
rfoot -4.49189 -11.8406
rtoes -4.54267
lfemur -25.3133 -4.69006 -30.8411
ltibia 30.9121
lfoot -14.3467 8.03566
ltoes 8.33639
418
root 15.2135 17.9538 16.7144 -169.305 8.87633 -182.133
lowerback 1.17291 0.942578 -6.42379
upperback -2.61301 1.17714 -2.49827
thorax -3.43359 0.794458 0.960865
lowerneck -3.44665 10.2676 9.4667
upperneck 13.0967 15.9534 -12.0263
head 6.24771 7.86535 -4.06965
rclavicle -1.8487e-014 3.97569e-015
rhumerus -47.8024 17.1417 -95.8963
rradius 50.041
rwrist -7.98451
rhand -11.2159 -33.0518
rfingers 7.12502
rthumb 14.8125 -62.5024
lclavicle -1.8487e-014 3.97569e-015
lhumerus -39.9243 -17.5452 85.4669
lradius 45.4311
lwrist 19.2485
lhand -8.04923 -16.6179
lfingers 7.12502
lthumb 17.8615 12.5818
rfemur -22.6502 -7.00406 17.4421
rtibia 68.0347
rfoot -4.95229 -12.0414
rtoes -4.68666
lfemur -24.8562 -4.53994 -31.0638
ltibia 30.4865
lfoot -14.3823 7.88081
ltoes 7.25515
419
root 15.2416 17.935 16.5861 -169.664 8.53713 -182.51
lowerback 1.2408 0.856241 -6.87957
upperback -2.44656 1.04944 -2.40036
thorax -3.30316 0.735114 1.32231
lowerneck -3.38453 10.3145 9.24214
upperneck 12.9114 16.0128 -12.0437
head 6.16932 7.88851 -4.0418
rclavicle -2.45499e-014 -3.73715e-014
rhumerus -47.6091 17.1255 -95.5662
rradius 49.543
rwrist -8.38102
rhand -11.3108 -32.7987
rfingers 7.12502
rthumb 14.7211 -62.256
lclavicle -2.45499e-014 -3.73715e-014
lhumerus -39.7759 -17.7007 85.6516
lradius 46.8799
lwrist 20.009
lhand -5.99279 -8.82881
lfingers 7.12502
lthumb 19.8393 20.1786
rfemur -23.7974 -6.41164 16.9843
rtibia 68.5792
rfoot -5.73385 -12.0013
rtoes -3.83392
lfemur -23.8228 -4.81673 -31.496
ltibia 30.0429
lfoot -14.5814 8.09392
ltoes 6.25869
420
root 15.2735 17.9343 16.4642 -169.782 8.01701 -182.74
lowerback 1.87842 0.932925 -7.16262
upperback -2.63516 1.07851 -2.42948
thorax -3.87005 0.77953 1.43077
lowerneck -3.99556 10.2284 9.29878
upperneck 13.4595 15.8773 -11.7956
head 6.41556 7.80589 -3.943
rclavicle -1.26228e-014 3.18055e-015
rhumerus -47.881 16.4018 -95.2923
rradius 49.3794
rwrist -8.75289
rhand -15.6907 -29.8157
rfingers 7.12502
rthumb 10.4985 -59.5335
lclavicle -1.26228e-014 3.18055e-015
lhumerus -39.8501 -18.4526 85.8367
lradius 48.4131
lwrist 20.8175
lhand -8.43934 -15.8625
lfingers 7.12502
lthumb 17.4861 13.371
rfemur -25.0653 -5.92598 16.7436
rtibia 68.8903
rfoot -6.57774 -12.3437
rtoes -3.9286
lfemur -23.0518 -5.22362 -31.6764
ltibia 29.6671
lfoot -14.8669 8.07752
ltoes 5.61566
421
root 15.3027 17.9405 16.3444 -169.743 7.32501 -182.831
lowerback 0.901665 0.975693 -6.96554
upperback -1.65827 1.28458 -2.76548
thorax -2.303 0.810225 1.00574
lowerneck -5.61319 10.2797 9.88695
upperneck 13.2079 15.5817 -11.9272
head 6.64365 7.56719 -4.01871
rclavicle -1.86858e-014 4.29375e-014
rhumerus -46.0126 15.365 -94.8836
rradius 48.9178
rwrist -8.6724
rhand -9.83503 -34.9649
rfingers 7.12502
rthumb 16.1425 -64.3127
lclavicle -1.86858e-014 4.29375e-014
lhumerus -37.8268 -19.8328 85.0671
lradius 49.7169
lwrist 21.529
lhand -9.68168 -18.0165
lfingers 7.12502
lthumb 16.2902 11.3192
rfemur -26.3363 -5.40054 16.692
rtibia 68.9856
rfoot -7.09088 -12.7178
rtoes -4.99745
lfemur -22.3711 -5.5122 -31.6776
ltibia 29.3408
lfoot -15.3117 7.54479
ltoes 6.67214
